<?xml version="1.0" encoding="utf-8"?>
<!-- Generator: Adobe Illustrator 15.1.0, SVG Export Plug-In  -->
<!DOCTYPE svg PUBLIC "-//W3C//DTD SVG 1.1//EN" "http://www.w3.org/Graphics/SVG/1.1/DTD/svg11.dtd" [
	<!ENTITY ns_flows "http://ns.adobe.com/Flows/1.0/">
]>
<svg version="1.1"
	 xmlns="http://www.w3.org/2000/svg" xmlns:xlink="http://www.w3.org/1999/xlink" xmlns:a="http://ns.adobe.com/AdobeSVGViewerExtensions/3.0/"
	 x="0px" y="0px" width="443px" height="188px" viewBox="0 0 443 188" enable-background="new 0 0 443 188" xml:space="preserve">
<defs>
</defs>
<path d="M269.802,98.305v6.956c0,2.258,0.48,3.354,2.107,3.354c1.395,0,2.109-0.83,2.109-3.055v-7.255h2.789v7.62
	c0,1.063-0.018,4.682-4.965,4.682c-2.955,0-5.246-1.395-5.246-4.682v-7.62H269.802z"/>
<path d="M280.259,98.305h2.672l5.098,7.205h0.033v-7.205h2.406v12.003h-2.656l-5.113-7.205h-0.033v7.205h-2.406V98.305z"/>
<path d="M293.921,98.305h3.203v12.003h-3.203V98.305z"/>
<path d="M299.431,98.305h3.404l3.154,8.749h0.033l3.088-8.749h2.125l-4.25,12.003h-3.205L299.431,98.305z"/>
<path d="M313.442,98.305h8.201v1.992h-4.998v2.922h4.102v1.793h-4.102v3.304h5.396v1.992h-8.6V98.305z"/>
<path d="M324.812,98.305h5.711c1.494,0,3.271,0.847,3.271,3.005c0,1.461-0.947,2.806-2.242,3.42l3.852,5.578h-3.867l-2.59-4.798
	h-1.129v4.798h-3.006V98.305z M327.817,103.717h1.063c1.111,0,1.709-1.179,1.709-2.059c0-0.813-0.365-1.361-1.793-1.361h-0.979
	V103.717z"/>
<path d="M337.063,107.9c1.029,0.415,2.141,0.714,3.254,0.714c0.846,0,1.992-0.232,1.992-1.312c0-1.942-5.346-2.142-5.346-5.927
	c0-2.407,2.158-3.37,4.266-3.37c1.195,0,2.391,0.149,3.57,0.365v2.274c-0.98-0.349-2.025-0.647-3.072-0.647
	c-0.631,0-1.561,0.249-1.561,1.029c0,1.81,5.545,2.042,5.545,5.96c0,1.212-0.631,3.619-4.914,3.619
	c-1.543,0-2.855-0.149-3.734-0.299V107.9z"/>
<path d="M348.185,98.305h3.205v12.003h-3.205V98.305z"/>
<path d="M357.946,100.313h-4.35v-2.009h11.902v2.009h-4.35v9.994h-3.203V100.313z"/>
<path d="M367.706,98.305h8.201v1.992h-4.996v2.922h4.1v1.793h-4.1v3.304h5.395v1.992h-8.6V98.305z M371.823,95.167h2.49
	l-2.391,2.391h-1.908L371.823,95.167z"/>
<path d="M266.597,122.104h5.363c2.24,0,3.586,0.847,3.586,3.204c0,2.391-1.512,4.15-4.184,4.15h-1.76v4.648h-3.006V122.104z
	 M269.603,127.666c1.111,0,2.738-0.133,2.738-2.108c0-1.096-0.813-1.461-1.793-1.461c-0.314,0-0.631,0.05-0.945,0.116V127.666z"/>
<path d="M280.093,122.104h3.205l4.598,12.003h-3.221l-1.162-3.055h-4.697l-1.18,3.055h-2.141L280.093,122.104z M282.782,129.16
	l-1.627-4.25l-1.627,4.25H282.782z"/>
<path d="M290.169,122.104h5.711c1.494,0,3.271,0.847,3.271,3.005c0,1.461-0.947,2.806-2.242,3.42l3.852,5.578h-3.867l-2.59-4.798
	h-1.129v4.798h-3.006V122.104z M293.175,127.517h1.063c1.111,0,1.709-1.179,1.709-2.059c0-0.813-0.365-1.361-1.793-1.361h-0.979
	V127.517z"/>
<path d="M303.017,122.104h3.205v12.003h-3.205V122.104z"/>
<path d="M309.077,131.7c1.029,0.415,2.141,0.714,3.254,0.714c0.846,0,1.992-0.232,1.992-1.312c0-1.942-5.346-2.142-5.346-5.927
	c0-2.407,2.158-3.37,4.266-3.37c1.195,0,2.391,0.149,3.57,0.365v2.274c-0.98-0.349-2.025-0.647-3.072-0.647
	c-0.631,0-1.561,0.249-1.561,1.029c0,1.81,5.545,2.042,5.545,5.96c0,1.212-0.631,3.619-4.914,3.619
	c-1.543,0-2.855-0.149-3.734-0.299V131.7z"/>
<path d="M319.401,128.015h3.602v1.793h-3.602V128.015z"/>
<path d="M325.659,122.104h8.201v1.992h-4.996v2.922h4.1v1.793h-4.1v3.304h5.395v1.992h-8.6V122.104z"/>
<path d="M336.433,131.7c1.029,0.415,2.141,0.714,3.254,0.714c0.846,0,1.992-0.232,1.992-1.312c0-1.942-5.346-2.142-5.346-5.927
	c0-2.407,2.158-3.37,4.266-3.37c1.195,0,2.391,0.149,3.57,0.365v2.274c-0.98-0.349-2.025-0.647-3.072-0.647
	c-0.631,0-1.561,0.249-1.561,1.029c0,1.81,5.545,2.042,5.545,5.96c0,1.212-0.631,3.619-4.914,3.619
	c-1.543,0-2.855-0.149-3.734-0.299V131.7z"/>
<path d="M350.659,124.113h-4.35v-2.009h11.902v2.009h-4.35v9.994h-3.203V124.113z"/>
<path d="M376.771,124.512c-1.145-0.432-2.34-0.714-3.568-0.714c-2.906,0-3.818,2.075-3.818,4.233c0,2.689,1.41,4.383,4.15,4.383
	c1.145,0,2.391-0.365,3.436-0.863v2.208c-1.361,0.448-2.822,0.647-4.482,0.647c-3.9,0-6.508-2.308-6.508-6.292
	s2.607-6.309,6.508-6.309c1.594,0,2.973,0.116,4.283,0.398V124.512z"/>
<path d="M379.493,122.104h5.711c1.494,0,3.27,0.847,3.27,3.005c0,1.461-0.945,2.806-2.24,3.42l3.852,5.578h-3.869l-2.59-4.798
	h-1.129v4.798h-3.004V122.104z M382.497,127.517h1.063c1.113,0,1.711-1.179,1.711-2.059c0-0.813-0.365-1.361-1.793-1.361h-0.98
	V127.517z"/>
<path d="M392.341,122.104h8.201v1.992h-4.998v2.922h4.102v1.793h-4.102v3.304h5.396v1.992h-8.6V122.104z M396.458,118.967h2.49
	l-2.391,2.391h-1.91L396.458,118.967z"/>
<path d="M406.815,124.113h-4.35v-2.009h11.904v2.009h-4.35v9.994h-3.205V124.113z"/>
<path d="M416.577,122.104h8.201v1.992h-4.998v2.922h4.102v1.793h-4.102v3.304h5.396v1.992h-8.6V122.104z"/>
<path d="M427.946,122.104h3.205v12.003h-3.205V122.104z"/>
<path d="M434.603,122.104h3.205v10.011h5.395v1.992h-8.6V122.104z"/>
<path d="M265.452,145.904h3.402l3.154,8.749h0.033l3.088-8.749h2.125l-4.25,12.003h-3.203L265.452,145.904z"/>
<path d="M281.653,145.904h3.205l4.598,12.003h-3.221l-1.162-3.055h-4.697l-1.18,3.055h-2.141L281.653,145.904z M284.343,152.96
	l-1.627-4.25l-1.627,4.25H284.343z"/>
<path d="M291.729,145.904h3.203v10.011h5.396v1.992h-8.6V145.904z"/>
<path d="M309.042,145.904h6.541c1.66,0,5.064,1.013,5.064,5.794c0,4.217-2.541,6.209-5.645,6.209h-5.961V145.904z M312.247,155.799
	c0.547,0.066,1.045,0.116,1.543,0.116c2.756,0,3.453-2.092,3.453-4.101c0-1.677-0.531-3.918-3.369-3.918h-1.627V155.799z"/>
<path d="M323.302,145.904h8.201v1.992h-4.996v2.922h4.1v1.793h-4.1v3.304h5.395v1.992h-8.6V145.904z"/>
<path d="M341.03,145.904h4.135l2.506,7.653h0.033l2.557-7.653h3.586v12.003h-2.904v-8.4h-0.033l-2.574,7.604h-2.324l-2.539-7.819
	h-0.033v8.616h-2.408V145.904z"/>
<path d="M360.718,145.904h3.205l4.598,12.003H365.3l-1.162-3.055h-4.697l-1.18,3.055h-2.141L360.718,145.904z M363.407,152.96
	l-1.627-4.25l-1.627,4.25H363.407z"/>
<path d="M370.794,145.904h5.711c1.494,0,3.27,0.847,3.27,3.005c0,1.461-0.945,2.806-2.24,3.42l3.852,5.578h-3.869l-2.59-4.798
	h-1.129v4.798h-3.004V145.904z M373.798,151.316h1.063c1.113,0,1.711-1.179,1.711-2.059c0-0.813-0.365-1.361-1.793-1.361h-0.98
	V151.316z"/>
<path d="M383.642,145.904h2.674l5.096,7.205h0.033v-7.205h2.408v12.003h-2.656l-5.113-7.205h-0.033v7.205h-2.408V145.904z"/>
<path d="M397.304,145.904h8.201v1.992h-4.996v2.922h4.1v1.793h-4.1v3.304h5.395v1.992h-8.6V145.904z"/>
<g>
	<g>
		<path d="M0.95,182.316c0-2.348,1.018-4.619,2.643-6.244c1.449-1.449,3.407-2.389,5.541-2.389c2.506,0,4.189,1.273,5.031,2.957
			l-0.881,0.469c-0.881-1.527-2.056-2.506-4.209-2.506c-1.821,0-3.465,0.803-4.679,2.018c-1.468,1.467-2.388,3.563-2.388,5.656
			c0,2.879,1.958,4.66,4.64,4.66c2.036,0,3.387-0.803,4.64-2.057l0.685,0.627c-1.253,1.313-2.897,2.369-5.423,2.369
			C3.514,187.877,0.95,185.783,0.95,182.316z"/>
		<path d="M25.748,181.828c0,1.605-0.705,3.133-1.82,4.248c-1.077,1.076-2.545,1.781-4.111,1.781c-2.643,0-4.444-1.859-4.444-4.424
			c0-1.605,0.705-3.133,1.82-4.248c1.077-1.078,2.545-1.781,4.111-1.781C23.947,177.404,25.748,179.264,25.748,181.828z
			 M23.144,185.527c0.959-0.959,1.566-2.27,1.566-3.66c0-2.252-1.429-3.563-3.504-3.563c-1.214,0-2.369,0.566-3.23,1.428
			c-0.959,0.959-1.566,2.271-1.566,3.662c0,2.25,1.429,3.563,3.504,3.563C21.127,186.957,22.283,186.389,23.144,185.527z"/>
		<path d="M30.891,177.639h0.959l-0.49,1.859c0.979-1.174,2.095-2.094,3.778-2.094c1.978,0,3.27,1.252,3.27,3.17
			c0,0.432-0.098,0.939-0.215,1.41l-1.488,5.639h-0.959l1.527-5.717c0.098-0.373,0.156-0.861,0.156-1.234
			c0-1.486-0.979-2.406-2.564-2.406c-1.703,0-3.583,1.545-4.17,3.719l-1.507,5.639h-0.959L30.891,177.639z"/>
		<path d="M43.827,177.639h0.959l-0.49,1.859c0.979-1.174,2.095-2.094,3.778-2.094c1.978,0,3.27,1.252,3.27,3.17
			c0,0.432-0.098,0.939-0.215,1.41l-1.488,5.639h-0.959l1.527-5.717c0.098-0.373,0.156-0.861,0.156-1.234
			c0-1.486-0.979-2.406-2.564-2.406c-1.703,0-3.583,1.545-4.17,3.719l-1.507,5.639h-0.959L43.827,177.639z"/>
		<path d="M54.06,185.059c0-0.959,0.353-1.762,0.959-2.369c0.803-0.803,2.056-1.254,3.543-1.254c1.429,0,2.838,0.295,3.837,0.568
			l0.078-0.273c0.079-0.295,0.137-0.725,0.137-1c0-1.506-1.057-2.348-3.015-2.348c-1.097,0-1.938,0.195-2.897,0.527l-0.176-0.861
			c0.979-0.352,1.918-0.566,3.152-0.566c2.447,0,3.876,1.193,3.876,3.111c0,0.373-0.079,0.861-0.196,1.313l-1.527,5.717h-0.939
			l0.45-1.723c-0.959,1.135-2.271,1.957-4.013,1.957C55.666,187.857,54.06,186.918,54.06,185.059z M61.969,183.648l0.235-0.881
			c-1.018-0.254-2.31-0.471-3.778-0.471c-1.135,0-2.056,0.354-2.643,0.939c-0.47,0.471-0.705,1.059-0.705,1.705
			c0,1.232,0.94,2.035,2.428,2.035C59.385,186.977,61.421,185.664,61.969,183.648z"/>
		<path d="M69.071,177.639h0.959l-2.682,9.984h-0.959L69.071,177.639z M70.011,173.723h1.194l-0.353,1.313h-1.194L70.011,173.723z"
			/>
		<path d="M71.653,186.115l0.685-0.686c1.097,1.057,2.35,1.527,3.661,1.527c1.272,0,2.584-0.783,2.584-1.977
			c0-0.764-0.431-1.332-2.173-1.979c-1.899-0.705-2.8-1.369-2.8-2.682c0-1.586,1.449-2.896,3.7-2.896c1.41,0,2.76,0.625,3.602,1.33
			l-0.626,0.725c-0.763-0.627-1.899-1.174-3.073-1.174c-1.684,0-2.584,0.92-2.584,1.859c0,0.764,0.392,1.232,2.251,1.957
			c1.997,0.783,2.721,1.508,2.721,2.701c0,1.742-1.703,3.016-3.72,3.016C74.335,187.838,72.789,187.25,71.653,186.115z"/>
		<path d="M82.123,186.115l0.685-0.686c1.097,1.057,2.35,1.527,3.661,1.527c1.272,0,2.584-0.783,2.584-1.977
			c0-0.764-0.431-1.332-2.173-1.979c-1.899-0.705-2.8-1.369-2.8-2.682c0-1.586,1.449-2.896,3.7-2.896c1.41,0,2.76,0.625,3.602,1.33
			l-0.626,0.725c-0.763-0.627-1.899-1.174-3.073-1.174c-1.684,0-2.584,0.92-2.584,1.859c0,0.764,0.392,1.232,2.251,1.957
			c1.997,0.783,2.721,1.508,2.721,2.701c0,1.742-1.703,3.016-3.72,3.016C84.805,187.838,83.258,187.25,82.123,186.115z"/>
		<path d="M93.219,185.059c0-0.959,0.353-1.762,0.959-2.369c0.803-0.803,2.056-1.254,3.543-1.254c1.429,0,2.838,0.295,3.837,0.568
			l0.078-0.273c0.079-0.295,0.137-0.725,0.137-1c0-1.506-1.057-2.348-3.015-2.348c-1.097,0-1.938,0.195-2.897,0.527l-0.176-0.861
			c0.979-0.352,1.918-0.566,3.152-0.566c2.447,0,3.876,1.193,3.876,3.111c0,0.373-0.079,0.861-0.196,1.313l-1.527,5.717h-0.939
			l0.45-1.723c-0.959,1.135-2.271,1.957-4.013,1.957C94.824,187.857,93.219,186.918,93.219,185.059z M101.128,183.648l0.235-0.881
			c-1.018-0.254-2.31-0.471-3.778-0.471c-1.135,0-2.056,0.354-2.643,0.939c-0.47,0.471-0.705,1.059-0.705,1.705
			c0,1.232,0.94,2.035,2.428,2.035C98.544,186.977,100.58,185.664,101.128,183.648z"/>
		<path d="M108.073,177.639h0.959l-0.49,1.859c0.979-1.174,2.095-2.094,3.778-2.094c1.978,0,3.27,1.252,3.27,3.17
			c0,0.432-0.098,0.939-0.215,1.41l-1.488,5.639h-0.959l1.527-5.717c0.098-0.373,0.156-0.861,0.156-1.234
			c0-1.486-0.979-2.406-2.564-2.406c-1.703,0-3.583,1.545-4.17,3.719l-1.507,5.639h-0.959L108.073,177.639z"/>
		<path d="M118.835,183.551c0-1.684,0.724-3.27,1.86-4.404c1.057-1.059,2.486-1.742,4.013-1.742c2.036,0,3.309,1.154,3.916,2.406
			l-0.803,0.451c-0.607-1.057-1.508-1.957-3.171-1.957c-1.194,0-2.33,0.547-3.191,1.408c-0.959,0.959-1.585,2.33-1.585,3.779
			c0,2.25,1.625,3.465,3.367,3.465c1.292,0,2.31-0.568,3.23-1.43l0.646,0.627c-1.018,0.979-2.291,1.703-3.935,1.703
			C120.989,187.857,118.835,186.291,118.835,183.551z"/>
		<path d="M131.712,182.963c-0.039,0.234-0.039,0.451-0.039,0.666c0,2.016,1.351,3.328,3.308,3.328c1.508,0,2.447-0.549,3.407-1.332
			l0.568,0.686c-1.038,0.861-2.173,1.547-3.975,1.547c-2.545,0-4.346-1.723-4.346-4.189c0-1.684,0.744-3.387,1.938-4.58
			c1.018-1.02,2.349-1.684,3.837-1.684c2.506,0,3.778,1.762,3.778,3.816c0,0.666-0.098,1.234-0.274,1.742H131.712z M131.889,182.102
			h7.243c0.04-0.176,0.079-0.449,0.079-0.822c0-1.605-0.881-2.994-2.819-2.994c-1.214,0-2.271,0.527-3.073,1.33
			C132.632,180.301,132.143,181.162,131.889,182.102z"/>
		<path d="M146.721,181.26h5.247l-0.293,1.096h-5.247L146.721,181.26z"/>
		<path d="M165.531,173.82h0.979l2.682,13.803h-1.037l-0.705-3.838h-8.085l-2.78,3.838h-1.136L165.531,173.82z M167.254,182.865
			l-1.469-7.928l-5.756,7.928H167.254z"/>
		<path d="M172.532,183.551c0-1.684,0.725-3.27,1.86-4.404c1.057-1.059,2.486-1.742,4.013-1.742c2.036,0,3.309,1.154,3.916,2.406
			l-0.803,0.451c-0.607-1.057-1.508-1.957-3.172-1.957c-1.194,0-2.329,0.547-3.19,1.408c-0.96,0.959-1.586,2.33-1.586,3.779
			c0,2.25,1.625,3.465,3.367,3.465c1.292,0,2.31-0.568,3.23-1.43l0.646,0.627c-1.018,0.979-2.29,1.703-3.935,1.703
			C174.687,187.857,172.532,186.291,172.532,183.551z"/>
		<path d="M185.194,185.822c0-0.314,0.059-0.705,0.117-0.961l1.703-6.342h-1.448l0.234-0.881h1.449l0.861-3.191h0.959l-0.861,3.191
			h3.445l-0.234,0.881h-3.445l-1.703,6.361c-0.06,0.256-0.099,0.607-0.099,0.842c0,0.822,0.627,1.195,1.625,1.195
			c0.431,0,0.881-0.098,1.449-0.313l-0.255,0.939c-0.528,0.195-0.9,0.254-1.409,0.254
			C186.251,187.799,185.194,187.191,185.194,185.822z"/>
		<path d="M195.587,177.639h0.959l-2.682,9.984h-0.959L195.587,177.639z M196.526,173.723h1.194l-0.353,1.313h-1.194
			L196.526,173.723z"/>
		<path d="M209.522,181.828c0,1.605-0.704,3.133-1.82,4.248c-1.077,1.076-2.545,1.781-4.111,1.781c-2.643,0-4.444-1.859-4.444-4.424
			c0-1.605,0.705-3.133,1.821-4.248c1.076-1.078,2.545-1.781,4.111-1.781C207.722,177.404,209.522,179.264,209.522,181.828z
			 M206.919,185.527c0.959-0.959,1.566-2.27,1.566-3.66c0-2.252-1.43-3.563-3.505-3.563c-1.214,0-2.368,0.566-3.229,1.428
			c-0.96,0.959-1.566,2.271-1.566,3.662c0,2.25,1.429,3.563,3.504,3.563C204.902,186.957,206.058,186.389,206.919,185.527z"/>
		<path d="M214.667,177.639h0.959l-0.489,1.859c0.979-1.174,2.095-2.094,3.778-2.094c1.977,0,3.27,1.252,3.27,3.17
			c0,0.432-0.1,0.939-0.217,1.41l-1.488,5.639h-0.959l1.527-5.717c0.098-0.373,0.156-0.861,0.156-1.234
			c0-1.486-0.979-2.406-2.564-2.406c-1.703,0-3.583,1.545-4.17,3.719l-1.508,5.639h-0.959L214.667,177.639z"/>
	</g>
</g>
<path d="M65.322,98.311h24.353c14.226,0,22.83,8.436,22.83,20.611v0.166c0,13.803-10.735,20.949-24.104,20.949h-9.961v17.889H65.322
	V98.311z M88.829,128.375c6.555,0,10.386-3.92,10.386-9.031v-0.17c0-5.875-4.087-9.023-10.648-9.023H78.439v18.225H88.829z"/>
<path d="M118.315,98.311h44.962v11.67h-31.932v12.092h28.103v11.674h-28.103v12.518h32.361v11.662h-45.391V98.311z"/>
<path d="M167.072,128.289v-0.176c0-16.938,12.78-30.816,31.091-30.816c11.242,0,17.972,3.742,23.504,9.188l-8.347,9.625
	c-4.597-4.176-9.28-6.725-15.245-6.725c-10.045,0-17.289,8.342-17.289,18.563v0.166c0,10.221,7.066,18.74,17.289,18.74
	c6.814,0,10.989-2.727,15.672-6.986l8.346,8.436c-6.129,6.557-12.95,10.643-24.442,10.643
	C180.114,158.945,167.072,145.404,167.072,128.289z"/>
<path d="M38.835,132.459c0,9.459-4.854,14.313-12.86,14.313c-8.006,0-12.858-5.025-12.858-14.736V98.311H0v34.07
	c0,17.539,9.796,26.48,25.806,26.48c16.008,0,26.143-8.859,26.143-26.914l0.106-40.838l-13.219,4.504V132.459z"/>
<polygon fill="#E62733" points="52.069,56.688 52.069,90.199 52.09,91.041 220.728,34.391 220.728,0 "/>
<polygon points="244.976,187.314 243.413,187.314 243.413,68.977 244.976,68.977 244.976,187.314 "/>
</svg>
